<?xml version="1.0" encoding="UTF-8"?>
<svg id="Layer_1" data-name="Layer 1" xmlns="http://www.w3.org/2000/svg" viewBox="0 0 465.04 360">
  <defs>
    <style>
      .cls-1 {
        fill: #908b8d;
        stroke-width: 0px;
      }
    </style>
  </defs>
  <path class="cls-1" d="M180,0C80.59,0,0,80.59,0,180s80.59,180,180,180,180-80.58,180-180S279.41,0,180,0ZM180,352.5c-95.27,0-172.5-77.23-172.5-172.5S84.73,7.5,180,7.5s172.5,77.24,172.5,172.5-77.23,172.5-172.5,172.5Z"/>
  <path class="cls-1" d="M180,12.5C87.49,12.5,12.5,87.5,12.5,180.01s74.99,167.49,167.5,167.49,167.5-74.99,167.5-167.49S272.51,12.5,180,12.5ZM197.26,38.89c47.12,5.9,89.48,35.47,110.35,80.2l-99.8,32.42c-5.21,1.7-10.55-2.19-10.55-7.67V38.89ZM201,169.54c2.21,0,4,1.79,4,4s-1.79,4-4,4-4-1.79-4-4,1.79-4,4-4ZM193,194.54c2.21,0,4,1.79,4,4s-1.79,4-4,4-4-1.79-4-4,1.79-4,4-4ZM179,154.54c2.21,0,4,1.79,4,4s-1.79,4-4,4-4-1.79-4-4,1.79-4,4-4ZM171,175c0-2.21,1.79-4,4-4h10c2.21,0,4,1.79,4,4v10c0,2.21-1.79,4-4,4h-10c-2.21,0-4-1.79-4-4v-10ZM167,193.54c2.21,0,4,1.79,4,4s-1.79,4-4,4-4-1.79-4-4,1.79-4,4-4ZM159,176.54c-2.21,0-4-1.79-4-4s1.79-4,4-4,4,1.79,4,4-1.79,4-4,4ZM162.26,39.9v104.94c0,5.47-5.35,9.35-10.55,7.67l-99.82-32.44c20.17-42.99,61.38-74.13,110.37-80.17ZM41.46,152.9l99.8,32.43c5.21,1.69,7.26,7.98,4.03,12.42l-61.69,84.9c-34.65-32.47-51.54-81.28-42.14-129.75ZM111.79,303.55l61.68-84.9c3.23-4.43,9.83-4.43,13.06,0l61.68,84.91c-41.58,22.93-93.23,23.9-136.42-.01ZM276.43,282.65l-61.69-84.9c-3.22-4.43-1.17-10.72,4.03-12.41l99.82-32.43c8.95,46.63-6.08,96.06-42.16,129.74Z"/>
  <path class="cls-1" d="M217.28,266.79c-11.31,5.58-24.03,8.72-37.5,8.72s-26.19-3.14-37.5-8.72l32.1-44.19c2.67-3.67,8.13-3.67,10.8,0l32.1,44.19Z"/>
  <path class="cls-1" d="M274.84,171.03c1.81,12.48.87,25.55-3.29,38.36-4.16,12.81-11.08,23.94-19.88,32.97l-32.11-44.18c-2.67-3.67-.98-8.87,3.34-10.27l51.95-16.87Z"/>
  <path class="cls-1" d="M200.78,86.49c12.43,2.13,24.57,7.07,35.46,14.99s19.34,17.93,25.21,29.1l-51.94,16.88c-4.32,1.4-8.73-1.81-8.74-6.35v-54.62Z"/>
  <path class="cls-1" d="M98.1,131.58c5.87-11.16,14.32-21.18,25.21-29.1s23.03-12.85,35.46-14.99v54.62c0,4.54-4.42,7.75-8.73,6.35l-51.94-16.88Z"/>
  <path class="cls-1" d="M108.33,242.36c-8.8-9.03-15.72-20.16-19.88-32.97s-5.11-25.88-3.29-38.36l51.95,16.87c4.32,1.41,6,6.6,3.34,10.27l-32.11,44.18Z"/>
  <path class="cls-1" d="M307.31,193.54c3.45,0,6.8.45,9.99,1.31-.51,5.23-1.28,10.43-2.3,15.57-4.01-1.4-8.3-2.16-12.74-2.16-14.96,0-28.03,8.55-35.1,21.29,3.2-20.43,19.97-36.01,40.15-36.01Z"/>
  <path class="cls-1" d="M465.04,239.23v19.08c0,8.07-4.2,15.5-11.11,21.43-9.68,8.3-24.69,13.65-40.94,13.65-19.89,0-37.08-8.02-45.27-19.67-3.27-4.65-5.12-9.88-5.12-15.41v-17.65c-.92-4.93-3.09-9.48-6.18-13.41,1.29-4.21,2.36-8.52,3.19-12.9,1.1,1.21,2.1,2.5,2.99,3.84,2.52,3.79,4.2,8.06,4.84,12.63.19,1.34.28,2.71.28,4.1,0,0-1.51,15.01,0,19.73,4.28,13.39,25.39,19.66,45.27,19.66,16.08,0,31.22-5.25,40.94-13.43,4.22-3.55,7.42-7.65,9.23-12.11-1.87-4.6-5.04-8.81-9.23-12.43-1.83-1.58-3.85-3.06-6.04-4.39l3.96-15.25c.72.56,1.41,1.13,2.08,1.72,6.66,5.83,11.11,13.02,11.11,20.81Z"/>
</svg>