<?xml version="1.0" encoding="UTF-8"?>
<svg id="Layer_1" data-name="Layer 1" xmlns="http://www.w3.org/2000/svg" viewBox="0 0 469.68 474.08">
  <defs>
    <style>
      .cls-1 {
        fill: #fff;
      }

      .cls-1, .cls-2 {
        stroke-width: 0px;
      }

      .cls-2 {
        fill: #F40B22;
      }
    </style>
  </defs>
  <g>
    <path class="cls-2" d="M163.44,267.58c0,4.78-3.81,8.65-8.51,8.65s-8.5-3.88-8.5-8.65,3.81-8.66,8.5-8.66,8.51,3.88,8.51,8.66Z"/>
    <path class="cls-2" d="M193.36,258.92c-4.7,0-8.51,3.88-8.51,8.66s3.81,8.66,8.51,8.66,8.51-3.88,8.51-8.66-3.82-8.66-8.51-8.66ZM193.36,258.92c-4.7,0-8.51,3.88-8.51,8.66s3.81,8.66,8.51,8.66,8.51-3.88,8.51-8.66-3.82-8.66-8.51-8.66ZM193.36,258.92c-4.7,0-8.51,3.88-8.51,8.66s3.81,8.66,8.51,8.66,8.51-3.88,8.51-8.66-3.82-8.66-8.51-8.66ZM193.36,258.92c-4.7,0-8.51,3.88-8.51,8.66s3.81,8.66,8.51,8.66,8.51-3.88,8.51-8.66-3.82-8.66-8.51-8.66ZM193.36,258.92c-4.7,0-8.51,3.88-8.51,8.66s3.81,8.66,8.51,8.66,8.51-3.88,8.51-8.66-3.82-8.66-8.51-8.66ZM193.36,258.92c-4.7,0-8.51,3.88-8.51,8.66s3.81,8.66,8.51,8.66,8.51-3.88,8.51-8.66-3.82-8.66-8.51-8.66ZM306.22,245.19h-171.75c-2.31,0-4.18,1.9-4.18,4.25v36.31c0,2.35,1.87,4.26,4.18,4.26h171.75c2.32,0,4.19-1.91,4.19-4.26v-36.31c0-2.35-1.87-4.25-4.19-4.25ZM154.93,279.09c-6.24,0-11.3-5.15-11.3-11.51s5.06-11.51,11.3-11.51,11.31,5.15,11.31,11.51-5.07,11.51-11.31,11.51ZM193.56,279.09c-6.25,0-11.31-5.15-11.31-11.51s5.06-11.51,11.31-11.51,11.31,5.15,11.31,11.51-5.07,11.51-11.31,11.51ZM240.36,276.77h-20.01v-2.08h20.01v2.08ZM240.36,268.62h-20.01v-2.08h20.01v2.08ZM240.36,260.48h-20.01v-2.09h20.01v2.09ZM193.36,258.92c-4.7,0-8.51,3.88-8.51,8.66s3.81,8.66,8.51,8.66,8.51-3.88,8.51-8.66-3.82-8.66-8.51-8.66ZM193.36,258.92c-4.7,0-8.51,3.88-8.51,8.66s3.81,8.66,8.51,8.66,8.51-3.88,8.51-8.66-3.82-8.66-8.51-8.66ZM193.36,258.92c-4.7,0-8.51,3.88-8.51,8.66s3.81,8.66,8.51,8.66,8.51-3.88,8.51-8.66-3.82-8.66-8.51-8.66ZM193.36,258.92c-4.7,0-8.51,3.88-8.51,8.66s3.81,8.66,8.51,8.66,8.51-3.88,8.51-8.66-3.82-8.66-8.51-8.66ZM193.36,258.92c-4.7,0-8.51,3.88-8.51,8.66s3.81,8.66,8.51,8.66,8.51-3.88,8.51-8.66-3.82-8.66-8.51-8.66Z"/>
    <path class="cls-2" d="M320.39,160.08h-165.64c-5.75,22.11-20.72,40.41-40.47,50.38v86.09c0,3.39,2.7,6.14,6.03,6.14h200.08c3.33,0,6.03-2.75,6.03-6.14v-130.33c0-3.39-2.7-6.14-6.03-6.14ZM314.41,289.82c0,2.36-1.87,4.26-4.19,4.26h-179.75c-2.32,0-4.18-1.9-4.18-4.26v-44.45c0-2.36,1.86-4.26,4.18-4.26h179.75c2.32,0,4.19,1.9,4.19,4.26v44.45Z"/>
    <path class="cls-2" d="M77.47,58.73C34.68,58.73,0,94.04,0,137.59s34.68,78.86,77.47,78.86,77.46-35.3,77.46-78.86S120.25,58.73,77.47,58.73ZM77.47,213.16c-41,0-74.24-33.83-74.24-75.57S36.47,62.02,77.47,62.02s74.24,33.84,74.24,75.57-33.24,75.57-74.24,75.57Z"/>
    <path class="cls-2" d="M77.47,64.21c-39.82,0-72.09,32.86-72.09,73.39s32.27,73.37,72.09,73.37,72.08-32.85,72.08-73.37-32.27-73.39-72.08-73.39ZM84.89,75.77c20.28,2.58,38.51,15.54,47.5,35.14l-42.96,14.2c-2.24.74-4.54-.96-4.54-3.36v-45.98ZM86.5,133.01c.96,0,1.73.78,1.73,1.75s-.77,1.75-1.73,1.75-1.72-.78-1.72-1.75.77-1.75,1.72-1.75ZM83.06,143.96c.95,0,1.72.79,1.72,1.75s-.77,1.76-1.72,1.76-1.72-.79-1.72-1.76.77-1.75,1.72-1.75ZM77.04,126.44c.95,0,1.72.78,1.72,1.75s-.77,1.75-1.72,1.75-1.73-.78-1.73-1.75.77-1.75,1.73-1.75ZM73.59,135.4c0-.97.77-1.75,1.72-1.75h4.31c.95,0,1.72.78,1.72,1.75v4.38c0,.97-.77,1.75-1.72,1.75h-4.31c-.95,0-1.72-.78-1.72-1.75v-4.38ZM71.87,143.52c.95,0,1.72.79,1.72,1.76s-.77,1.75-1.72,1.75-1.72-.79-1.72-1.75.77-1.76,1.72-1.76ZM68.43,136.07c-.95,0-1.72-.78-1.72-1.75s.77-1.75,1.72-1.75,1.72.78,1.72,1.75-.77,1.75-1.72,1.75ZM69.83,76.21v45.98c0,2.39-2.3,4.09-4.54,3.36l-42.96-14.22c8.68-18.83,26.42-32.47,47.5-35.12ZM17.84,125.72l42.95,14.21c2.25.74,3.13,3.49,1.74,5.44l-26.55,37.19c-14.91-14.22-22.18-35.61-18.14-56.84ZM48.11,191.72l26.55-37.2c1.39-1.94,4.23-1.94,5.62,0l26.54,37.2c-17.89,10.05-40.12,10.47-58.71,0ZM118.97,182.56l-26.55-37.19c-1.39-1.94-.51-4.7,1.73-5.44l42.96-14.21c3.85,20.43-2.62,42.09-18.14,56.84Z"/>
    <path class="cls-2" d="M93.51,175.61c-4.87,2.44-10.34,3.82-16.14,3.82s-11.27-1.38-16.14-3.82l13.81-19.36c1.15-1.61,3.5-1.61,4.65,0l13.81,19.36Z"/>
    <path class="cls-2" d="M118.28,133.66c.78,5.47.37,11.19-1.42,16.81s-4.77,10.49-8.56,14.44l-13.82-19.36c-1.15-1.61-.42-3.88,1.44-4.5l22.36-7.39Z"/>
    <path class="cls-2" d="M86.41,96.62c5.35.93,10.57,3.1,15.26,6.57s8.32,7.86,10.85,12.75l-22.36,7.4c-1.86.61-3.76-.79-3.76-2.78v-23.93Z"/>
    <path class="cls-2" d="M42.22,116.37c2.53-4.89,6.16-9.28,10.85-12.75s9.91-5.63,15.26-6.57v23.93c0,1.99-1.9,3.39-3.76,2.78l-22.36-7.4Z"/>
    <path class="cls-2" d="M46.62,164.91c-3.79-3.96-6.76-8.83-8.56-14.44s-2.2-11.34-1.42-16.81l22.36,7.39c1.86.62,2.58,2.89,1.44,4.5l-13.82,19.36Z"/>
    <g>
      <path class="cls-2" d="M381.01,45.37c-18.18-39.42-64.31-56.38-103.04-37.88-38.73,18.51-55.39,65.47-37.21,104.9,18.18,39.43,64.31,56.38,103.04,37.88,38.73-18.51,55.39-65.47,37.21-104.9ZM342.43,147.29c-37.12,17.74-81.33,1.48-98.75-36.3-17.42-37.78-1.46-82.79,35.66-100.52,37.12-17.74,81.33-1.48,98.75,36.3,17.42,37.78,1.45,82.79-35.66,100.52Z"/>
      <path class="cls-2" d="M376.14,47.7c-16.91-36.69-59.84-52.47-95.89-35.25-36.04,17.22-51.54,60.92-34.62,97.61,16.91,36.69,59.84,52.47,95.88,35.25,36.04-17.22,51.55-60.92,34.63-97.61ZM349.46,30.97l-32.95,31.43c-1.72,1.65-4.51,1.1-5.51-1.07l-19.2-41.63c19.44-6.43,41.35-2.59,57.66,11.27ZM318.61,82.23c.86-.41,1.88-.04,2.29.84.4.87.03,1.92-.83,2.33-.86.41-1.89.03-2.29-.84-.4-.88-.03-1.92.83-2.33ZM316.33,73.15c-.41-.87-.04-1.92.82-2.33.86-.41,1.89-.03,2.29.84.41.88.04,1.92-.83,2.34-.86.41-1.88.03-2.28-.85ZM278.35,26.62l19.19,41.62c1,2.17-.37,4.7-2.71,5l-44.82,5.72c0-20.81,10.36-40.83,28.34-52.34ZM300.61,92.38l-8.51,45.16c-19.44-6.43-34.95-22.65-40.15-43.62l44.81-5.72c2.34-.29,4.29,1.82,3.85,4.18ZM302.07,81.42c-.86.41-1.89.03-2.29-.85-.4-.87-.03-1.91.83-2.33.86-.41,1.88-.03,2.29.85.4.87.03,1.92-.83,2.33ZM305.01,71.3c-.4-.88-.03-1.92.83-2.33.86-.41,1.88-.04,2.29.84.4.88.03,1.92-.83,2.33-.86.41-1.88.04-2.29-.84ZM307.29,76.24l3.9-1.86c.86-.41,1.88-.03,2.29.84l1.82,3.97c.41.87.04,1.92-.82,2.33l-3.9,1.86c-.86.41-1.88.03-2.29-.84l-1.83-3.97c-.4-.87-.03-1.92.83-2.33ZM309.76,89.84c-.86.41-1.89.04-2.29-.84-.41-.88-.04-1.92.82-2.33.87-.41,1.89-.03,2.29.84.41.88.04,1.92-.82,2.33ZM306.9,140.58l8.51-45.16c.44-2.35,3.02-3.58,5.08-2.43l39.56,22.2c-12.01,16.83-31.95,26.83-53.15,25.39ZM367.22,101.64l-39.56-22.19c-2.06-1.15-2.41-4.03-.7-5.67l32.96-31.44c12.02,16.83,15.2,39.23,7.3,59.3Z"/>
      <path class="cls-2" d="M341.28,106.36c-3.39,4.32-7.77,7.93-13.02,10.44-5.25,2.51-10.78,3.63-16.2,3.52l4.43-23.5c.37-1.95,2.5-2.97,4.21-2.01l20.59,11.55Z"/>
      <path class="cls-2" d="M346.19,57.66c2.99,4.61,5.01,9.97,5.73,15.83s.06,11.56-1.72,16.78l-20.59-11.55c-1.71-.96-2-3.33-.58-4.69l17.15-16.36Z"/>
      <path class="cls-2" d="M301.88,37.92c5.23-1.47,10.86-1.77,16.56-.66s10.82,3.51,15.14,6.85l-17.15,16.36c-1.43,1.36-3.73.91-4.56-.89l-9.99-21.66Z"/>
      <path class="cls-2" d="M270.12,74.92c.25-5.52,1.7-11.06,4.5-16.23,2.8-5.17,6.62-9.39,11.08-12.55l9.99,21.66c.83,1.8-.31,3.9-2.24,4.14l-23.32,2.97Z"/>
      <path class="cls-2" d="M294.37,116.95c-5.08-1.94-9.81-5.07-13.77-9.38-3.96-4.31-6.72-9.31-8.3-14.6l23.32-2.98c1.94-.25,3.55,1.5,3.18,3.45l-4.43,23.5Z"/>
    </g>
    <rect class="cls-2" x="329.18" y="203.42" width="28.02" height="77.42"/>
    <rect class="cls-2" x="360.13" y="211.57" width="12.01" height="61.12"/>
    <polygon class="cls-2" points="435.11 293.06 375.07 263.72 375.07 218.9 435.11 191.19 435.11 293.06"/>
    <path class="cls-2" d="M163.44,267.58c0,4.78-3.81,8.65-8.51,8.65s-8.5-3.88-8.5-8.65,3.81-8.66,8.5-8.66,8.51,3.88,8.51,8.66Z"/>
    <path class="cls-2" d="M193.36,258.92c-4.7,0-8.51,3.88-8.51,8.66s3.81,8.66,8.51,8.66,8.51-3.88,8.51-8.66-3.82-8.66-8.51-8.66ZM193.36,258.92c-4.7,0-8.51,3.88-8.51,8.66s3.81,8.66,8.51,8.66,8.51-3.88,8.51-8.66-3.82-8.66-8.51-8.66ZM193.36,258.92c-4.7,0-8.51,3.88-8.51,8.66s3.81,8.66,8.51,8.66,8.51-3.88,8.51-8.66-3.82-8.66-8.51-8.66ZM193.36,258.92c-4.7,0-8.51,3.88-8.51,8.66s3.81,8.66,8.51,8.66,8.51-3.88,8.51-8.66-3.82-8.66-8.51-8.66ZM193.36,258.92c-4.7,0-8.51,3.88-8.51,8.66s3.81,8.66,8.51,8.66,8.51-3.88,8.51-8.66-3.82-8.66-8.51-8.66ZM193.36,258.92c-4.7,0-8.51,3.88-8.51,8.66s3.81,8.66,8.51,8.66,8.51-3.88,8.51-8.66-3.82-8.66-8.51-8.66ZM306.22,245.19h-171.75c-2.31,0-4.18,1.9-4.18,4.25v36.31c0,2.35,1.87,4.26,4.18,4.26h171.75c2.32,0,4.19-1.91,4.19-4.26v-36.31c0-2.35-1.87-4.25-4.19-4.25ZM154.93,279.09c-6.24,0-11.3-5.15-11.3-11.51s5.06-11.51,11.3-11.51,11.31,5.15,11.31,11.51-5.07,11.51-11.31,11.51ZM193.56,279.09c-6.25,0-11.31-5.15-11.31-11.51s5.06-11.51,11.31-11.51,11.31,5.15,11.31,11.51-5.07,11.51-11.31,11.51ZM240.36,276.77h-20.01v-2.08h20.01v2.08ZM240.36,268.62h-20.01v-2.08h20.01v2.08ZM240.36,260.48h-20.01v-2.09h20.01v2.09ZM193.36,258.92c-4.7,0-8.51,3.88-8.51,8.66s3.81,8.66,8.51,8.66,8.51-3.88,8.51-8.66-3.82-8.66-8.51-8.66ZM193.36,258.92c-4.7,0-8.51,3.88-8.51,8.66s3.81,8.66,8.51,8.66,8.51-3.88,8.51-8.66-3.82-8.66-8.51-8.66ZM193.36,258.92c-4.7,0-8.51,3.88-8.51,8.66s3.81,8.66,8.51,8.66,8.51-3.88,8.51-8.66-3.82-8.66-8.51-8.66ZM193.36,258.92c-4.7,0-8.51,3.88-8.51,8.66s3.81,8.66,8.51,8.66,8.51-3.88,8.51-8.66-3.82-8.66-8.51-8.66ZM193.36,258.92c-4.7,0-8.51,3.88-8.51,8.66s3.81,8.66,8.51,8.66,8.51-3.88,8.51-8.66-3.82-8.66-8.51-8.66Z"/>
    <path class="cls-2" d="M163.44,267.58c0,4.78-3.81,8.65-8.51,8.65s-8.5-3.88-8.5-8.65,3.81-8.66,8.5-8.66,8.51,3.88,8.51,8.66Z"/>
    <path class="cls-2" d="M193.36,258.92c-4.7,0-8.51,3.88-8.51,8.66s3.81,8.66,8.51,8.66,8.51-3.88,8.51-8.66-3.82-8.66-8.51-8.66ZM193.36,258.92c-4.7,0-8.51,3.88-8.51,8.66s3.81,8.66,8.51,8.66,8.51-3.88,8.51-8.66-3.82-8.66-8.51-8.66ZM193.36,258.92c-4.7,0-8.51,3.88-8.51,8.66s3.81,8.66,8.51,8.66,8.51-3.88,8.51-8.66-3.82-8.66-8.51-8.66ZM193.36,258.92c-4.7,0-8.51,3.88-8.51,8.66s3.81,8.66,8.51,8.66,8.51-3.88,8.51-8.66-3.82-8.66-8.51-8.66ZM193.36,258.92c-4.7,0-8.51,3.88-8.51,8.66s3.81,8.66,8.51,8.66,8.51-3.88,8.51-8.66-3.82-8.66-8.51-8.66ZM193.36,258.92c-4.7,0-8.51,3.88-8.51,8.66s3.81,8.66,8.51,8.66,8.51-3.88,8.51-8.66-3.82-8.66-8.51-8.66ZM306.22,245.19h-171.75c-2.31,0-4.18,1.9-4.18,4.25v36.31c0,2.35,1.87,4.26,4.18,4.26h171.75c2.32,0,4.19-1.91,4.19-4.26v-36.31c0-2.35-1.87-4.25-4.19-4.25ZM154.93,279.09c-6.24,0-11.3-5.15-11.3-11.51s5.06-11.51,11.3-11.51,11.31,5.15,11.31,11.51-5.07,11.51-11.31,11.51ZM193.56,279.09c-6.25,0-11.31-5.15-11.31-11.51s5.06-11.51,11.31-11.51,11.31,5.15,11.31,11.51-5.07,11.51-11.31,11.51ZM240.36,276.77h-20.01v-2.08h20.01v2.08ZM240.36,268.62h-20.01v-2.08h20.01v2.08ZM240.36,260.48h-20.01v-2.09h20.01v2.09ZM193.36,258.92c-4.7,0-8.51,3.88-8.51,8.66s3.81,8.66,8.51,8.66,8.51-3.88,8.51-8.66-3.82-8.66-8.51-8.66ZM193.36,258.92c-4.7,0-8.51,3.88-8.51,8.66s3.81,8.66,8.51,8.66,8.51-3.88,8.51-8.66-3.82-8.66-8.51-8.66ZM193.36,258.92c-4.7,0-8.51,3.88-8.51,8.66s3.81,8.66,8.51,8.66,8.51-3.88,8.51-8.66-3.82-8.66-8.51-8.66ZM193.36,258.92c-4.7,0-8.51,3.88-8.51,8.66s3.81,8.66,8.51,8.66,8.51-3.88,8.51-8.66-3.82-8.66-8.51-8.66ZM193.36,258.92c-4.7,0-8.51,3.88-8.51,8.66s3.81,8.66,8.51,8.66,8.51-3.88,8.51-8.66-3.82-8.66-8.51-8.66Z"/>
    <path class="cls-1" d="M163.44,267.58c0,4.78-3.81,8.65-8.51,8.65s-8.5-3.88-8.5-8.65,3.81-8.66,8.5-8.66,8.51,3.88,8.51,8.66Z"/>
    <path class="cls-2" d="M163.44,267.58c0,4.78-3.81,8.65-8.51,8.65s-8.5-3.88-8.5-8.65,3.81-8.66,8.5-8.66,8.51,3.88,8.51,8.66Z"/>
    <path class="cls-1" d="M201.87,267.58c0,4.78-3.81,8.65-8.51,8.65s-8.5-3.88-8.5-8.65,3.81-8.66,8.5-8.66,8.51,3.88,8.51,8.66Z"/>
    <path class="cls-2" d="M201.87,267.58c0,4.78-3.81,8.65-8.51,8.65s-8.5-3.88-8.5-8.65,3.81-8.66,8.5-8.66,8.51,3.88,8.51,8.66Z"/>
    <path class="cls-2" d="M102.48,61.19L253.85,22.61c-2.06,2.02-4.02,4.15-5.84,6.38L110.84,63.95c-2.72-1.08-5.51-2.01-8.36-2.77Z"/>
    <path class="cls-2" d="M285.26,154.95l-129.81,1.12c.39-1.57.73-3.15,1.01-4.76l115.77-.98c4.16,1.92,8.51,3.48,13.03,4.63Z"/>
    <polygon class="cls-2" points="469.68 175.47 469.68 180.2 439.85 193.03 439.85 189.3 469.68 175.47"/>
    <polygon class="cls-2" points="439.85 291.27 469.68 304.73 469.68 309.46 439.85 294.96 439.85 291.27"/>
    <polygon class="cls-2" points="469.13 182.67 469.13 184.57 439.3 197.4 439.3 196.51 469.13 182.67"/>
    <polygon class="cls-2" points="468.19 302.2 468.19 300.31 438.36 287.48 438.36 288.37 468.19 302.2"/>
  </g>
  <path class="cls-2" d="M108.75,222.56h2.85v70h-2.85c-1.19,0-2.15-.96-2.15-2.15v-65.7c0-1.18.96-2.15,2.15-2.15Z"/>
  <polygon class="cls-2" points="223.52 305.33 208.52 305.33 117.52 474.08 132.52 474.08 223.52 305.33"/>
  <polygon class="cls-2" points="314.52 474.08 299.52 474.08 208.52 305.33 223.52 305.33 314.52 474.08"/>
</svg>