<?xml version="1.0" encoding="UTF-8"?>
<svg id="Layer_1" data-name="Layer 1" xmlns="http://www.w3.org/2000/svg" viewBox="0 0 469.68 474.08">
  <defs>
    <style>
      .cls-1 {
        fill: #fff;
      }

      .cls-1, .cls-2 {
        stroke-width: 0px;
      }

      .cls-2 {
        fill: #f40b22;
      }
    </style>
  </defs>
  <g>
    <path class="cls-2" d="M163.44,267.58c0,4.78-3.81,8.65-8.51,8.65s-8.5-3.88-8.5-8.65,3.81-8.66,8.5-8.66,8.51,3.88,8.51,8.66Z"/>
    <path class="cls-2" d="M193.36,258.92c-4.7,0-8.51,3.88-8.51,8.66s3.81,8.66,8.51,8.66,8.51-3.88,8.51-8.66-3.82-8.66-8.51-8.66ZM193.36,258.92c-4.7,0-8.51,3.88-8.51,8.66s3.81,8.66,8.51,8.66,8.51-3.88,8.51-8.66-3.82-8.66-8.51-8.66ZM193.36,258.92c-4.7,0-8.51,3.88-8.51,8.66s3.81,8.66,8.51,8.66,8.51-3.88,8.51-8.66-3.82-8.66-8.51-8.66ZM193.36,258.92c-4.7,0-8.51,3.88-8.51,8.66s3.81,8.66,8.51,8.66,8.51-3.88,8.51-8.66-3.82-8.66-8.51-8.66ZM193.36,258.92c-4.7,0-8.51,3.88-8.51,8.66s3.81,8.66,8.51,8.66,8.51-3.88,8.51-8.66-3.82-8.66-8.51-8.66ZM193.36,258.92c-4.7,0-8.51,3.88-8.51,8.66s3.81,8.66,8.51,8.66,8.51-3.88,8.51-8.66-3.82-8.66-8.51-8.66ZM193.36,258.92c-4.7,0-8.51,3.88-8.51,8.66s3.81,8.66,8.51,8.66,8.51-3.88,8.51-8.66-3.82-8.66-8.51-8.66ZM193.36,258.92c-4.7,0-8.51,3.88-8.51,8.66s3.81,8.66,8.51,8.66,8.51-3.88,8.51-8.66-3.82-8.66-8.51-8.66ZM193.36,258.92c-4.7,0-8.51,3.88-8.51,8.66s3.81,8.66,8.51,8.66,8.51-3.88,8.51-8.66-3.82-8.66-8.51-8.66ZM193.36,258.92c-4.7,0-8.51,3.88-8.51,8.66s3.81,8.66,8.51,8.66,8.51-3.88,8.51-8.66-3.82-8.66-8.51-8.66ZM306.22,245.19h-171.75c-2.31,0-4.18,1.9-4.18,4.25v36.31c0,2.35,1.87,4.26,4.18,4.26h171.75c2.32,0,4.19-1.91,4.19-4.26v-36.31c0-2.35-1.87-4.25-4.19-4.25ZM154.93,279.09c-6.24,0-11.3-5.15-11.3-11.51s5.06-11.51,11.3-11.51,11.31,5.15,11.31,11.51-5.07,11.51-11.31,11.51ZM193.56,279.09c-6.25,0-11.31-5.15-11.31-11.51s5.06-11.51,11.31-11.51,11.31,5.15,11.31,11.51-5.07,11.51-11.31,11.51ZM240.36,276.77h-20.01v-2.08h20.01v2.08ZM240.36,268.62h-20.01v-2.08h20.01v2.08ZM240.36,260.48h-20.01v-2.09h20.01v2.09ZM193.36,258.92c-4.7,0-8.51,3.88-8.51,8.66s3.81,8.66,8.51,8.66,8.51-3.88,8.51-8.66-3.82-8.66-8.51-8.66ZM193.36,258.92c-4.7,0-8.51,3.88-8.51,8.66s3.81,8.66,8.51,8.66,8.51-3.88,8.51-8.66-3.82-8.66-8.51-8.66ZM193.36,258.92c-4.7,0-8.51,3.88-8.51,8.66s3.81,8.66,8.51,8.66,8.51-3.88,8.51-8.66-3.82-8.66-8.51-8.66ZM193.36,258.92c-4.7,0-8.51,3.88-8.51,8.66s3.81,8.66,8.51,8.66,8.51-3.88,8.51-8.66-3.82-8.66-8.51-8.66ZM193.36,258.92c-4.7,0-8.51,3.88-8.51,8.66s3.81,8.66,8.51,8.66,8.51-3.88,8.51-8.66-3.82-8.66-8.51-8.66ZM193.36,258.92c-4.7,0-8.51,3.88-8.51,8.66s3.81,8.66,8.51,8.66,8.51-3.88,8.51-8.66-3.82-8.66-8.51-8.66ZM193.36,258.92c-4.7,0-8.51,3.88-8.51,8.66s3.81,8.66,8.51,8.66,8.51-3.88,8.51-8.66-3.82-8.66-8.51-8.66ZM193.36,258.92c-4.7,0-8.51,3.88-8.51,8.66s3.81,8.66,8.51,8.66,8.51-3.88,8.51-8.66-3.82-8.66-8.51-8.66ZM193.36,258.92c-4.7,0-8.51,3.88-8.51,8.66s3.81,8.66,8.51,8.66,8.51-3.88,8.51-8.66-3.82-8.66-8.51-8.66Z"/>
    <path class="cls-2" d="M228.4,213.44c-1.87,1.92-3.09,3.5-4.05,4.76-1.45,1.91-2.04,3.37-2.45,4.41-.59,1.46-1.66,4.54-.8,7.65.19.69.6,1.64,1.52,2.09,1.4.68,3.04-.36,3.39-.58,1.47-.92,2.13-2.38,2.46-3.25,1.93-5.06,3.17-17.37,3.24-18.19-.96.82-2.1,1.86-3.31,3.11ZM228.4,213.44c-1.87,1.92-3.09,3.5-4.05,4.76-1.45,1.91-2.04,3.37-2.45,4.41-.59,1.46-1.66,4.54-.8,7.65.19.69.6,1.64,1.52,2.09,1.4.68,3.04-.36,3.39-.58,1.47-.92,2.13-2.38,2.46-3.25,1.93-5.06,3.17-17.37,3.24-18.19-.96.82-2.1,1.86-3.31,3.11ZM320.39,160.08h-165.64c-5.75,22.11-20.72,40.41-40.47,50.38v86.09c0,3.39,2.7,6.14,6.03,6.14h200.08c3.33,0,6.03-2.75,6.03-6.14v-130.33c0-3.39-2.7-6.14-6.03-6.14ZM243.84,194.59c.25-2.3.34-3.76,1.16-4.04.44-.15,1.08.03,1.37.43.35.49.11,1.19,0,1.52-.59,1.81-.71,2.05-.86,3.1-.25,1.83-.36,1.95-.44,5.13-.03,1.3.21,3.46.72,4.04.82.92,2.44.6,2.53.58.86-.18,1.83-.62,2.89-1.83,1.88-2.14,2.96-4.02,3.1-4.52.7-2.41.6-3.23.72-5.2.13-2.05.09-2.95.29-4.77.06-.49.17-1.38.8-1.73.31-.17.79-.23,1.08,0,.26.21.3.58.29,1.16-.02,1.02-.22,1.49-.29,2.31-.19,2.19-.1,2.51-.36,4.91-.26,2.31-.41,3.38.07,4.83.25.76.69,2.08,1.81,2.46,1.14.39,2.31-.42,2.96-.87.35-.24,1.41-1.03,2.74-3.68.66-1.31.93-2.17,1.3-3.18.57-1.54,1.51-4.06,2.82-5.92,2.01-2.86,4.85-4.05,7.07-4.98,3.87-1.61,6.21-1.2,7.15-.79.24.1.93.41,1.01.94.06.39-.29.53-.65,1.37-.34.79-.24,1.15-.58,1.37-.35.22-.82.06-1.01,0-.52-.16-1.69-.23-3.97.14-1.44.24-3.89.65-6.21,2.53-2.31,1.88-3.16,4.13-3.46,4.98-.42,1.17-.9,2.54-.29,3.9.1.23.58,1.32,1.66,1.66.34.11.99.22,2.31-.36,2-.89,3.21-2.33,4.18-3.54,1.3-1.59.96-1.3,2.41-4.32.41-.86.46-1.7,1.2-3.02.42-.73.4-.5.8-.53.37-.02.81.21,1.01.58.35.67-.32,1.38-1.23,3.54-.51,1.21-.76,1.84-.72,2.53.01.15.13,1.69,1.37,2.59,1.29.94,2.27.53,2.72.41,1.25-.31,2.66-1.13,4.77-3.17,2.31-2.25,3.34-3.7,3.85-4.6.62-1.11.92-2.11,1.44-3.83.72-2.37,1.08-3.56,1.16-4.04.15-.98.19-1.89.79-2.16.32-.15.77-.1,1.01.14.32.32.22.88.15,1.3-.13.75-.28,1.84-.37,3.32.24-.55,2.71-6.21,6.93-6.5.47-.03,2.04-.13,3.04.87,1.18,1.18.85,3.19.65,4.48-.51,3.18-1.98,3.84-2.53,7.43-.38,2.47.18,3.06.43,3.25.79.6,2.15.09,2.39,0,1.01-.38,1.11-.92,2.67-1.88.77-.47,1.47-.89,1.8-.65.24.18.16.65,0,1.59-.26,1.5-.66,2.29-1.01,2.82-.35.51-.6.7-.87.72-.3.02-.42-.21-.72-.29-.6-.17-1.15.47-1.8.94-.87.62-2.32,1.22-3.4.87-1-.33-1.47-1.43-1.66-1.88-.16-.39-.67-1.73.44-5.78.93-3.4,1.39-5.1,1.73-5.77.12-.25.53-1.03.36-1.95-.03-.17-.19-1.04-.87-1.37-.4-.2-.91-.17-1.73.21-1.88.87-3,2.46-3.25,2.82-1.56,2.26-2.63,3.82-3.39,6.35-.63,2.12-1.49,4.19-1.95,6.35-.07.32-.24,1.2-.87,1.45-.41.17-1.01.05-1.22-.29-.18-.29-.05-.67,0-.79.24-.72.47-2.06.65-4.55-1.52,2.13-2.23,2.89-3.37,3.88-.72.62-1.93,1.87-3.42,2.88-.71.48-2.09,1.18-2.67,1.32-1.72.43-3.21-.52-3.39-.65-1.35-.89-1.78-2.22-1.88-2.6-.52.86-2.89,4.53-6.86,4.99-.9.1-3.28.37-4.48-1.16-.62-.8-.67-1.76-.65-2.31-.43,1.24-1.61,3.97-4.33,5.42-.82.43-2.04,1.09-3.32.64-1.39-.48-2.06-1.98-2.24-2.38-.31-.69-.4-1.32-.43-1.73-1.62,2.33-3.24,3.91-4.4,4.91-1.4,1.2-2.14,1.54-2.96,1.59-1.41.07-2.73-.74-3.47-1.74-.61-.82-.76-1.68-.87-2.74-.31-3.19.14-4.67.65-9.46ZM213.88,176.26c.23-1.06.83-3.88,3.32-5.56.43-.29,1.58-.99,3.18-1.16,2.81-.29,5.16,1.05,7.65,3.32,2.73,2.48,3.65,3.44,6.57,7.08.68.84,1.51,1.91,1.95,3.53.41,1.51.29,2.77.22,3.4-.29,2.66-1.09,9.34-2.31,18.26,2.81-2.52,4.21-3.96,4.77-4.76.14-.2.54-.82,1.22-.94.11-.02.62-.13.94.15.38.32.26.97.15,1.66-.13.71-.27,1.49-.87,1.87-.19.13-.44.21-.94.36-.43.14-.76.21-.8.22-.51.12-1.95,1.38-5.26,5.06-.3,3.67-.69,6.73-1.02,8.95-1.1,7.51-2.15,10.12-3.1,11.98-2.38,4.65-4.62,5.47-5.49,5.7-.45.13-2.06.56-3.32-.28-.84-.57-1.31-1.58-1.59-3.69-.25-1.96-.61-5.01.73-8.95,1.18-3.5,3.06-5.81,4.62-7.72,1.49-1.85,3.04-3.31,3.9-4.12,1.41-1.34,2.69-2.4,3.68-3.18,1.47-9.13,2.51-15.84,2.74-17.47.04-.29.15-1.1.14-2.16,0-.55,0-1.44-.21-2.31-.31-1.29-.96-2.17-1.52-2.89-2.47-3.21-3.86-5.01-6.57-7.29-1.63-1.38-2.66-2.02-3.9-2.46-.99-.35-1.98-.69-3.17-.43-2.2.48-3.25,2.58-3.4,2.89-.57,1.2-.63,2.48-.28,4.4.98,5.47,6.42,12.64,6.42,12.64,2.84,3.7,4.62,5.41,6.57,7.22.27.24.56,1.28.22,2.23-.17.48-.52.95-.8,1.08-1.73.87-8.48-7.51-12.78-17.32-1.42-3.25-2.34-6.11-1.66-9.31ZM179.01,203.18c5.13-3.54,13.79-4.55,11.63-.79-.61,1.6-.49,2.11-2.31,1.59-1.78-.08-4.43.11-7.15,1.52-1.48.39-9.51,6.58-5.06,11.33,3.66,2.77,9.43-4.87,9.97-8.88-.24-.63,1.44-3.94,2.45-1.88.74,1.11-2.37,5.83-1.73,7.08,3.27,7.31,13.7-6.06,12.78-5.78.88-1.88,2.59-5.53,2.53-8.01,0-.31-.07-1.49.57-1.88,2.34-.79,1.14,3.48,1.01,4.41.31-1.23,5.8-9.33,10.18-5.06,1.9,3.34-1.48,7.73-2.09,11.7-.74,3.38.56,3.97,2.82,3.25,1.38-.57,1.43-1.69,2.95-2.24,2.4-1.03,1.97,1.22,1.09,3.03-.19.42-.76,1.85-1.38,1.85-.19,0-.38-.14-.57-.48-2.57,1.38-2.85,2.06-5.2,1.88-2.72-1.25-2.8-2.49-2.02-6.14.77-3.39,3.61-7.98,1.8-10.54-2.12-.96-5.1,1.94-6.13,3.97-.37.61-2.53,5-3.9,10.33-.07.25,0,1.38-.72,2.23-2.79,2.82-1.23-3.07-.94-4.98-4.14,5.25-12.13,12.19-14.87,4.55-1.28,3.01-7.12,6.92-10.33,4.77-3.89-4.25-.19-13.58,4.62-16.83ZM141.98,220.22c1.12-7.99,21.9-10.42,14.29-3.03-1.94,1.17-3.52-.66-6.71-.07-3.22.29-7.17,3.9-3.9,7.8,3.56,2.91,6.57,3.06,12.49,1.73,1.66.29,12.24-7.46,9.67-13.94-4.34-8.29-10.81-2.92-15.81-13.14-3.13-9.33,6.94-24.14,15.74-19.34,4.76,2.6,3.9,5.84,2.46,10.97-.9,3.16-1.45,3.55-1.81,3.61-1.56.2-1.36-1.65-.79-2.53,2.98-4.78.89-12.03-6.07-9.09-5.73,2.72-8.4,7.2-8.01,12.41,2.48,9.82,18.88,6.44,16.75,20.29-1.58,16.33-31.73,22.6-28.3,4.33ZM314.41,289.82c0,2.36-1.87,4.26-4.19,4.26h-179.75c-2.32,0-4.18-1.9-4.18-4.26v-44.45c0-2.36,1.86-4.26,4.18-4.26h179.75c2.32,0,4.19,1.9,4.19,4.26v44.45ZM228.4,213.44c-1.87,1.92-3.09,3.5-4.05,4.76-1.45,1.91-2.04,3.37-2.45,4.41-.59,1.46-1.66,4.54-.8,7.65.19.69.6,1.64,1.52,2.09,1.4.68,3.04-.36,3.39-.58,1.47-.92,2.13-2.38,2.46-3.25,1.93-5.06,3.17-17.37,3.24-18.19-.96.82-2.1,1.86-3.31,3.11Z"/>
    <path class="cls-2" d="M77.47,58.73C34.68,58.73,0,94.04,0,137.59s34.68,78.86,77.47,78.86,77.46-35.3,77.46-78.86S120.25,58.73,77.47,58.73ZM77.47,213.16c-41,0-74.24-33.83-74.24-75.57S36.47,62.02,77.47,62.02s74.24,33.84,74.24,75.57-33.24,75.57-74.24,75.57Z"/>
    <path class="cls-2" d="M77.47,64.21c-39.82,0-72.09,32.86-72.09,73.39s32.27,73.37,72.09,73.37,72.08-32.85,72.08-73.37-32.27-73.39-72.08-73.39ZM84.89,75.77c20.28,2.58,38.51,15.54,47.5,35.14l-42.96,14.2c-2.24.74-4.54-.96-4.54-3.36v-45.98ZM86.5,133.01c.96,0,1.73.78,1.73,1.75s-.77,1.75-1.73,1.75-1.72-.78-1.72-1.75.77-1.75,1.72-1.75ZM83.06,143.96c.95,0,1.72.79,1.72,1.75s-.77,1.76-1.72,1.76-1.72-.79-1.72-1.76.77-1.75,1.72-1.75ZM77.04,126.44c.95,0,1.72.78,1.72,1.75s-.77,1.75-1.72,1.75-1.73-.78-1.73-1.75.77-1.75,1.73-1.75ZM73.59,135.4c0-.97.77-1.75,1.72-1.75h4.31c.95,0,1.72.78,1.72,1.75v4.38c0,.97-.77,1.75-1.72,1.75h-4.31c-.95,0-1.72-.78-1.72-1.75v-4.38ZM71.87,143.52c.95,0,1.72.79,1.72,1.76s-.77,1.75-1.72,1.75-1.72-.79-1.72-1.75.77-1.76,1.72-1.76ZM68.43,136.07c-.95,0-1.72-.78-1.72-1.75s.77-1.75,1.72-1.75,1.72.78,1.72,1.75-.77,1.75-1.72,1.75ZM69.83,76.21v45.98c0,2.39-2.3,4.09-4.54,3.36l-42.96-14.22c8.68-18.83,26.42-32.47,47.5-35.12ZM17.84,125.72l42.95,14.21c2.25.74,3.13,3.49,1.74,5.44l-26.55,37.19c-14.91-14.22-22.18-35.61-18.14-56.84ZM48.11,191.72l26.55-37.2c1.39-1.94,4.23-1.94,5.62,0l26.54,37.2c-17.89,10.05-40.12,10.47-58.71,0ZM118.97,182.56l-26.55-37.19c-1.39-1.94-.51-4.7,1.73-5.44l42.96-14.21c3.85,20.43-2.62,42.09-18.14,56.84Z"/>
    <path class="cls-2" d="M93.51,175.61c-4.87,2.44-10.34,3.82-16.14,3.82s-11.27-1.38-16.14-3.82l13.81-19.36c1.15-1.61,3.5-1.61,4.65,0l13.81,19.36Z"/>
    <path class="cls-2" d="M118.28,133.66c.78,5.47.37,11.19-1.42,16.81s-4.77,10.49-8.56,14.44l-13.82-19.36c-1.15-1.61-.42-3.88,1.44-4.5l22.36-7.39Z"/>
    <path class="cls-2" d="M86.41,96.62c5.35.93,10.57,3.1,15.26,6.57,4.69,3.47,8.32,7.86,10.85,12.75l-22.36,7.4c-1.86.61-3.76-.79-3.76-2.78v-23.93Z"/>
    <path class="cls-2" d="M42.22,116.37c2.53-4.89,6.16-9.28,10.85-12.75s9.91-5.63,15.26-6.57v23.93c0,1.99-1.9,3.39-3.76,2.78l-22.36-7.4Z"/>
    <path class="cls-2" d="M46.62,164.91c-3.79-3.96-6.76-8.83-8.56-14.44s-2.2-11.34-1.42-16.81l22.36,7.39c1.86.62,2.58,2.89,1.44,4.5l-13.82,19.36Z"/>
    <g>
      <path class="cls-2" d="M381.01,45.37c-18.18-39.42-64.31-56.38-103.04-37.88-38.73,18.51-55.39,65.47-37.21,104.9,18.18,39.43,64.31,56.38,103.04,37.88,38.73-18.51,55.39-65.47,37.21-104.9ZM342.43,147.29c-37.12,17.74-81.33,1.48-98.75-36.3-17.42-37.78-1.46-82.79,35.66-100.52,37.12-17.74,81.33-1.48,98.75,36.3,17.42,37.78,1.45,82.79-35.66,100.52Z"/>
      <path class="cls-2" d="M376.14,47.7c-16.91-36.69-59.84-52.47-95.89-35.25-36.04,17.22-51.54,60.92-34.62,97.61,16.91,36.69,59.84,52.47,95.88,35.25,36.04-17.22,51.55-60.92,34.63-97.61ZM349.46,30.97l-32.95,31.43c-1.72,1.65-4.51,1.1-5.51-1.07l-19.2-41.63c19.44-6.43,41.35-2.59,57.66,11.27ZM318.61,82.23c.86-.41,1.88-.04,2.29.84.4.87.03,1.92-.83,2.33-.86.41-1.89.03-2.29-.84-.4-.88-.03-1.92.83-2.33ZM316.33,73.15c-.41-.87-.04-1.92.82-2.33.86-.41,1.89-.03,2.29.84.41.88.04,1.92-.83,2.34-.86.41-1.88.03-2.28-.85ZM278.35,26.62l19.19,41.62c1,2.17-.37,4.7-2.71,5l-44.82,5.72c0-20.81,10.36-40.83,28.34-52.34ZM300.61,92.38l-8.51,45.16c-19.44-6.43-34.95-22.65-40.15-43.62l44.81-5.72c2.34-.29,4.29,1.82,3.85,4.18ZM302.07,81.42c-.86.41-1.89.03-2.29-.85-.4-.87-.03-1.91.83-2.33.86-.41,1.88-.03,2.29.85.4.87.03,1.92-.83,2.33ZM305.01,71.3c-.4-.88-.03-1.92.83-2.33.86-.41,1.88-.04,2.29.84.4.88.03,1.92-.83,2.33-.86.41-1.88.04-2.29-.84ZM307.29,76.24l3.9-1.86c.86-.41,1.88-.03,2.29.84l1.82,3.97c.41.87.04,1.92-.82,2.33l-3.9,1.86c-.86.41-1.88.03-2.29-.84l-1.83-3.97c-.4-.87-.03-1.92.83-2.33ZM309.76,89.84c-.86.41-1.89.04-2.29-.84-.41-.88-.04-1.92.82-2.33.87-.41,1.89-.03,2.29.84.41.88.04,1.92-.82,2.33ZM306.9,140.58l8.51-45.16c.44-2.35,3.02-3.58,5.08-2.43l39.56,22.2c-12.01,16.83-31.95,26.83-53.15,25.39ZM367.22,101.64l-39.56-22.19c-2.06-1.15-2.41-4.03-.7-5.67l32.96-31.44c12.02,16.83,15.2,39.23,7.3,59.3Z"/>
      <path class="cls-2" d="M341.28,106.36c-3.39,4.32-7.77,7.93-13.02,10.44-5.25,2.51-10.78,3.63-16.2,3.52l4.43-23.5c.37-1.95,2.5-2.97,4.21-2.01l20.59,11.55Z"/>
      <path class="cls-2" d="M346.19,57.66c2.99,4.61,5.01,9.97,5.73,15.83s.06,11.56-1.72,16.78l-20.59-11.55c-1.71-.96-2-3.33-.58-4.69l17.15-16.36Z"/>
      <path class="cls-2" d="M301.88,37.92c5.23-1.47,10.86-1.77,16.56-.66s10.82,3.51,15.14,6.85l-17.15,16.36c-1.43,1.36-3.73.91-4.56-.89l-9.99-21.66Z"/>
      <path class="cls-2" d="M270.12,74.92c.25-5.52,1.7-11.06,4.5-16.23,2.8-5.17,6.62-9.39,11.08-12.55l9.99,21.66c.83,1.8-.31,3.9-2.24,4.14l-23.32,2.97Z"/>
      <path class="cls-2" d="M294.37,116.95c-5.08-1.94-9.81-5.07-13.77-9.38s-6.72-9.31-8.3-14.6l23.32-2.98c1.94-.25,3.55,1.5,3.18,3.45l-4.43,23.5Z"/>
    </g>
    <rect class="cls-2" x="329.18" y="203.42" width="28.02" height="77.42"/>
    <rect class="cls-2" x="360.13" y="211.57" width="12.01" height="61.12"/>
    <polygon class="cls-2" points="435.11 293.06 375.07 263.72 375.07 218.9 435.11 191.19 435.11 293.06"/>
    <path class="cls-2" d="M163.44,267.58c0,4.78-3.81,8.65-8.51,8.65s-8.5-3.88-8.5-8.65,3.81-8.66,8.5-8.66,8.51,3.88,8.51,8.66Z"/>
    <path class="cls-2" d="M193.36,258.92c-4.7,0-8.51,3.88-8.51,8.66s3.81,8.66,8.51,8.66,8.51-3.88,8.51-8.66-3.82-8.66-8.51-8.66ZM193.36,258.92c-4.7,0-8.51,3.88-8.51,8.66s3.81,8.66,8.51,8.66,8.51-3.88,8.51-8.66-3.82-8.66-8.51-8.66ZM193.36,258.92c-4.7,0-8.51,3.88-8.51,8.66s3.81,8.66,8.51,8.66,8.51-3.88,8.51-8.66-3.82-8.66-8.51-8.66ZM193.36,258.92c-4.7,0-8.51,3.88-8.51,8.66s3.81,8.66,8.51,8.66,8.51-3.88,8.51-8.66-3.82-8.66-8.51-8.66ZM193.36,258.92c-4.7,0-8.51,3.88-8.51,8.66s3.81,8.66,8.51,8.66,8.51-3.88,8.51-8.66-3.82-8.66-8.51-8.66ZM193.36,258.92c-4.7,0-8.51,3.88-8.51,8.66s3.81,8.66,8.51,8.66,8.51-3.88,8.51-8.66-3.82-8.66-8.51-8.66ZM193.36,258.92c-4.7,0-8.51,3.88-8.51,8.66s3.81,8.66,8.51,8.66,8.51-3.88,8.51-8.66-3.82-8.66-8.51-8.66ZM193.36,258.92c-4.7,0-8.51,3.88-8.51,8.66s3.81,8.66,8.51,8.66,8.51-3.88,8.51-8.66-3.82-8.66-8.51-8.66ZM193.36,258.92c-4.7,0-8.51,3.88-8.51,8.66s3.81,8.66,8.51,8.66,8.51-3.88,8.51-8.66-3.82-8.66-8.51-8.66ZM193.36,258.92c-4.7,0-8.51,3.88-8.51,8.66s3.81,8.66,8.51,8.66,8.51-3.88,8.51-8.66-3.82-8.66-8.51-8.66ZM306.22,245.19h-171.75c-2.31,0-4.18,1.9-4.18,4.25v36.31c0,2.35,1.87,4.26,4.18,4.26h171.75c2.32,0,4.19-1.91,4.19-4.26v-36.31c0-2.35-1.87-4.25-4.19-4.25ZM154.93,279.09c-6.24,0-11.3-5.15-11.3-11.51s5.06-11.51,11.3-11.51,11.31,5.15,11.31,11.51-5.07,11.51-11.31,11.51ZM193.56,279.09c-6.25,0-11.31-5.15-11.31-11.51s5.06-11.51,11.31-11.51,11.31,5.15,11.31,11.51-5.07,11.51-11.31,11.51ZM240.36,276.77h-20.01v-2.08h20.01v2.08ZM240.36,268.62h-20.01v-2.08h20.01v2.08ZM240.36,260.48h-20.01v-2.09h20.01v2.09ZM193.36,258.92c-4.7,0-8.51,3.88-8.51,8.66s3.81,8.66,8.51,8.66,8.51-3.88,8.51-8.66-3.82-8.66-8.51-8.66ZM193.36,258.92c-4.7,0-8.51,3.88-8.51,8.66s3.81,8.66,8.51,8.66,8.51-3.88,8.51-8.66-3.82-8.66-8.51-8.66ZM193.36,258.92c-4.7,0-8.51,3.88-8.51,8.66s3.81,8.66,8.51,8.66,8.51-3.88,8.51-8.66-3.82-8.66-8.51-8.66ZM193.36,258.92c-4.7,0-8.51,3.88-8.51,8.66s3.81,8.66,8.51,8.66,8.51-3.88,8.51-8.66-3.82-8.66-8.51-8.66ZM193.36,258.92c-4.7,0-8.51,3.88-8.51,8.66s3.81,8.66,8.51,8.66,8.51-3.88,8.51-8.66-3.82-8.66-8.51-8.66ZM193.36,258.92c-4.7,0-8.51,3.88-8.51,8.66s3.81,8.66,8.51,8.66,8.51-3.88,8.51-8.66-3.82-8.66-8.51-8.66ZM193.36,258.92c-4.7,0-8.51,3.88-8.51,8.66s3.81,8.66,8.51,8.66,8.51-3.88,8.51-8.66-3.82-8.66-8.51-8.66ZM193.36,258.92c-4.7,0-8.51,3.88-8.51,8.66s3.81,8.66,8.51,8.66,8.51-3.88,8.51-8.66-3.82-8.66-8.51-8.66ZM193.36,258.92c-4.7,0-8.51,3.88-8.51,8.66s3.81,8.66,8.51,8.66,8.51-3.88,8.51-8.66-3.82-8.66-8.51-8.66Z"/>
    <path class="cls-2" d="M163.44,267.58c0,4.78-3.81,8.65-8.51,8.65s-8.5-3.88-8.5-8.65,3.81-8.66,8.5-8.66,8.51,3.88,8.51,8.66Z"/>
    <path class="cls-2" d="M193.36,258.92c-4.7,0-8.51,3.88-8.51,8.66s3.81,8.66,8.51,8.66,8.51-3.88,8.51-8.66-3.82-8.66-8.51-8.66ZM193.36,258.92c-4.7,0-8.51,3.88-8.51,8.66s3.81,8.66,8.51,8.66,8.51-3.88,8.51-8.66-3.82-8.66-8.51-8.66ZM193.36,258.92c-4.7,0-8.51,3.88-8.51,8.66s3.81,8.66,8.51,8.66,8.51-3.88,8.51-8.66-3.82-8.66-8.51-8.66ZM193.36,258.92c-4.7,0-8.51,3.88-8.51,8.66s3.81,8.66,8.51,8.66,8.51-3.88,8.51-8.66-3.82-8.66-8.51-8.66ZM193.36,258.92c-4.7,0-8.51,3.88-8.51,8.66s3.81,8.66,8.51,8.66,8.51-3.88,8.51-8.66-3.82-8.66-8.51-8.66ZM193.36,258.92c-4.7,0-8.51,3.88-8.51,8.66s3.81,8.66,8.51,8.66,8.51-3.88,8.51-8.66-3.82-8.66-8.51-8.66ZM193.36,258.92c-4.7,0-8.51,3.88-8.51,8.66s3.81,8.66,8.51,8.66,8.51-3.88,8.51-8.66-3.82-8.66-8.51-8.66ZM193.36,258.92c-4.7,0-8.51,3.88-8.51,8.66s3.81,8.66,8.51,8.66,8.51-3.88,8.51-8.66-3.82-8.66-8.51-8.66ZM193.36,258.92c-4.7,0-8.51,3.88-8.51,8.66s3.81,8.66,8.51,8.66,8.51-3.88,8.51-8.66-3.82-8.66-8.51-8.66ZM193.36,258.92c-4.7,0-8.51,3.88-8.51,8.66s3.81,8.66,8.51,8.66,8.51-3.88,8.51-8.66-3.82-8.66-8.51-8.66ZM306.22,245.19h-171.75c-2.31,0-4.18,1.9-4.18,4.25v36.31c0,2.35,1.87,4.26,4.18,4.26h171.75c2.32,0,4.19-1.91,4.19-4.26v-36.31c0-2.35-1.87-4.25-4.19-4.25ZM154.93,279.09c-6.24,0-11.3-5.15-11.3-11.51s5.06-11.51,11.3-11.51,11.31,5.15,11.31,11.51-5.07,11.51-11.31,11.51ZM193.56,279.09c-6.25,0-11.31-5.15-11.31-11.51s5.06-11.51,11.31-11.51,11.31,5.15,11.31,11.51-5.07,11.51-11.31,11.51ZM240.36,276.77h-20.01v-2.08h20.01v2.08ZM240.36,268.62h-20.01v-2.08h20.01v2.08ZM240.36,260.48h-20.01v-2.09h20.01v2.09ZM193.36,258.92c-4.7,0-8.51,3.88-8.51,8.66s3.81,8.66,8.51,8.66,8.51-3.88,8.51-8.66-3.82-8.66-8.51-8.66ZM193.36,258.92c-4.7,0-8.51,3.88-8.51,8.66s3.81,8.66,8.51,8.66,8.51-3.88,8.51-8.66-3.82-8.66-8.51-8.66ZM193.36,258.92c-4.7,0-8.51,3.88-8.51,8.66s3.81,8.66,8.51,8.66,8.51-3.88,8.51-8.66-3.82-8.66-8.51-8.66ZM193.36,258.92c-4.7,0-8.51,3.88-8.51,8.66s3.81,8.66,8.51,8.66,8.51-3.88,8.51-8.66-3.82-8.66-8.51-8.66ZM193.36,258.92c-4.7,0-8.51,3.88-8.51,8.66s3.81,8.66,8.51,8.66,8.51-3.88,8.51-8.66-3.82-8.66-8.51-8.66ZM193.36,258.92c-4.7,0-8.51,3.88-8.51,8.66s3.81,8.66,8.51,8.66,8.51-3.88,8.51-8.66-3.82-8.66-8.51-8.66ZM193.36,258.92c-4.7,0-8.51,3.88-8.51,8.66s3.81,8.66,8.51,8.66,8.51-3.88,8.51-8.66-3.82-8.66-8.51-8.66ZM193.36,258.92c-4.7,0-8.51,3.88-8.51,8.66s3.81,8.66,8.51,8.66,8.51-3.88,8.51-8.66-3.82-8.66-8.51-8.66ZM193.36,258.92c-4.7,0-8.51,3.88-8.51,8.66s3.81,8.66,8.51,8.66,8.51-3.88,8.51-8.66-3.82-8.66-8.51-8.66Z"/>
    <path class="cls-1" d="M163.44,267.58c0,4.78-3.81,8.65-8.51,8.65s-8.5-3.88-8.5-8.65,3.81-8.66,8.5-8.66,8.51,3.88,8.51,8.66Z"/>
    <path class="cls-2" d="M163.44,267.58c0,4.78-3.81,8.65-8.51,8.65s-8.5-3.88-8.5-8.65,3.81-8.66,8.5-8.66,8.51,3.88,8.51,8.66Z"/>
    <path class="cls-1" d="M201.87,267.58c0,4.78-3.81,8.65-8.51,8.65s-8.5-3.88-8.5-8.65,3.81-8.66,8.5-8.66,8.51,3.88,8.51,8.66Z"/>
    <path class="cls-2" d="M201.87,267.58c0,4.78-3.81,8.65-8.51,8.65s-8.5-3.88-8.5-8.65,3.81-8.66,8.5-8.66,8.51,3.88,8.51,8.66Z"/>
    <path class="cls-2" d="M102.48,61.19L253.85,22.61c-2.06,2.02-4.02,4.15-5.84,6.38L110.84,63.95c-2.72-1.08-5.51-2.01-8.36-2.77Z"/>
    <path class="cls-2" d="M285.26,154.95l-129.81,1.12c.39-1.57.73-3.15,1.01-4.76l115.77-.98c4.16,1.92,8.51,3.48,13.03,4.63Z"/>
    <polygon class="cls-2" points="469.68 175.47 469.68 180.2 439.85 193.03 439.85 189.3 469.68 175.47"/>
    <polygon class="cls-2" points="439.85 291.27 469.68 304.73 469.68 309.46 439.85 294.96 439.85 291.27"/>
    <polygon class="cls-2" points="469.13 184.67 469.13 186.57 439.3 199.4 439.3 198.51 469.13 184.67"/>
    <polygon class="cls-2" points="468.19 300.2 468.19 298.31 438.36 285.48 438.36 286.37 468.19 300.2"/>
  </g>
  <path class="cls-2" d="M108.75,222.56h2.85v70h-2.85c-1.19,0-2.15-.96-2.15-2.15v-65.7c0-1.18.96-2.15,2.15-2.15Z"/>
  <polygon class="cls-2" points="223.52 305.33 208.52 305.33 117.52 474.08 132.52 474.08 223.52 305.33"/>
  <polygon class="cls-2" points="314.52 474.08 299.52 474.08 208.52 305.33 223.52 305.33 314.52 474.08"/>
</svg>