<?xml version="1.0" encoding="UTF-8"?>
<svg id="Layer_2" data-name="Layer 2" xmlns="http://www.w3.org/2000/svg" viewBox="0 0 884.18 648.15">
  <defs>
    <style>
      .cls-1 {
        fill: #fff;
        font-family: Leelawadee, Leelawadee;
        font-size: 48px;
      }

      .cls-2 {
        fill: #310000;
      }

      .cls-2, .cls-3, .cls-4 {
        stroke-width: 0px;
      }

      .cls-3 {
        fill: #6abd45;
      }

      .cls-4 {
        fill: #ee1e3a;
      }
    </style>
  </defs>
  <rect class="cls-2" x="114" y="128.64" width="648" height="504"/>
  <g>
    <path class="cls-3" d="M229.81,219.85c10.55-16.92,3.15-42.57-21.45-32.17-20.27,9.63-29.71,25.47-28.34,43.91,8.79,34.7,66.79,22.74,59.23,71.75-5.59,57.76-112.2,79.91-100.09,15.32,3.96-28.26,77.46-36.88,50.56-10.72-6.87,4.13-12.46-2.34-23.75-.26-11.39,1.03-25.33,13.81-13.79,27.58,12.61,10.31,23.25,10.83,44.17,6.13,5.87,1.04,43.28-26.4,34.21-49.28-15.36-29.33-38.24-10.34-55.91-46.47-11.06-33.01,24.55-85.4,55.66-68.43,16.85,9.19,13.79,20.68,8.68,38.81-3.15,11.19-5.12,12.54-6.38,12.77-5.52.7-4.79-5.83-2.81-8.94Z"/>
    <path class="cls-3" d="M311.26,255.6c7.67-13.31-22.98-9.73-41.11,2.81-17.03,11.49-30.09,44.47-16.34,59.49,11.35,7.61,31.99-6.21,36.51-16.85,9.7,27.02,37.95,2.45,52.6-16.09-1.01,6.76-6.54,27.56,3.32,17.62,2.57-3.04,2.32-7.01,2.55-7.92,4.85-18.83,12.5-34.37,13.79-36.51,3.65-7.17,14.18-17.46,21.7-14.04,6.39,9.05-3.65,25.27-6.38,37.28-2.77,12.88-2.48,17.27,7.15,21.7,8.32.62,9.3-1.78,18.38-6.64h0c2.84,5.17,6.01-2.89,6.89-4.85,3.12-6.4,4.65-14.34-3.83-10.72-5.4,1.97-5.58,5.91-10.47,7.91-7.98,2.57-12.56.48-9.96-11.49,2.17-14.04,14.11-29.57,7.4-41.36-15.5-15.1-34.93,13.54-36,17.87.43-3.27,4.68-18.39-3.57-15.58-2.27,1.39-2.07,5.56-2.04,6.64.21,8.77-5.82,21.67-8.94,28.34,3.25-.98-33.61,46.27-45.19,20.43-2.28-4.41,8.74-21.09,6.13-25.02-3.59-7.31-9.53,4.42-8.68,6.64-1.89,14.19-22.29,41.2-35.23,31.4-15.75-16.79,12.65-38.7,17.87-40.08,9.61-4.98,19.01-5.63,25.28-5.36,6.47,1.83,6.02.05,8.17-5.62Z"/>
    <path class="cls-3" d="M490.74,245.64c-1.14-.98-2.93-.58-3.31-.51-2.4.42-3.84,2.6-4.34,3.32-1.98,2.82-6.91,7.91-16.86,16.85,4.31-31.57,7.14-55.17,8.17-64.6.25-2.22.69-6.66-.76-12-1.56-5.74-4.49-9.52-6.9-12.51-10.35-12.86-13.59-16.26-23.23-25.02-8.83-8.03-17.14-12.76-27.06-11.74-5.67.58-9.74,3.07-11.24,4.08-8.83,5.95-10.95,15.93-11.74,19.66-2.41,11.34.82,21.43,5.87,32.94,15.21,34.68,39.05,64.34,45.19,61.27.98-.48,2.22-2.15,2.81-3.83,1.2-3.37.18-7.04-.77-7.91-6.89-6.38-13.19-12.42-23.23-25.53,0,0-19.24-25.33-22.72-44.68-1.23-6.81-1.02-11.33,1.02-15.58.53-1.1,4.22-8.52,12-10.21,4.23-.92,7.71.27,11.23,1.53,4.36,1.56,8.01,3.81,13.79,8.68,9.57,8.06,14.48,14.43,23.23,25.79,1.97,2.55,4.28,5.66,5.37,10.21.73,3.1.75,6.24.76,8.17.02,3.76-.36,6.61-.51,7.66-.81,5.77-4.49,29.5-9.7,61.79-3.5,2.75-8.02,6.49-13.02,11.23-3.02,2.86-8.49,8.03-13.79,14.56-5.51,6.78-12.15,14.94-16.34,27.32-4.72,13.94-3.46,24.72-2.55,31.66.96,7.44,2.62,11,5.61,13.02,4.44,2.98,10.14,1.45,11.75,1.02,3.06-.82,11-3.73,19.4-20.17,3.36-6.57,7.06-15.83,10.98-42.38,1.16-7.85,2.55-18.65,3.58-31.66,11.71-13,16.83-17.47,18.63-17.88.11-.02,1.28-.27,2.81-.76,1.76-.56,2.64-.84,3.32-1.28,2.14-1.36,2.63-4.12,3.07-6.64.42-2.43.82-4.72-.52-5.87ZM445.04,348.02c-1.16,3.05-3.49,8.22-8.68,11.49-1.24.78-7.06,4.46-12,2.04-3.25-1.58-4.68-4.96-5.36-7.4-3.06-10.98.74-21.89,2.81-27.06,1.46-3.67,3.53-8.83,8.68-15.58,3.4-4.45,7.7-10.06,14.3-16.85,4.29-4.42,8.31-8.07,11.74-10.98-.28,2.9-4.64,46.42-11.49,64.34Z"/>
    <path class="cls-3" d="M503.51,213.73c-2.9,1-3.21,6.14-4.09,14.3-1.82,16.93-3.41,22.16-2.3,33.45.37,3.74.9,6.79,3.06,9.7,2.62,3.52,7.3,6.39,12.26,6.13,2.93-.16,5.52-1.38,10.47-5.62,4.12-3.52,9.86-9.11,15.57-17.36.11,1.45.44,3.67,1.53,6.13.62,1.39,3,6.73,7.91,8.43,4.52,1.56,8.84-.75,11.74-2.3,9.61-5.13,13.77-14.77,15.32-19.15-.08,1.94.09,5.35,2.3,8.17,4.23,5.41,12.64,4.45,15.83,4.09,14.03-1.6,22.41-14.6,24.26-17.62.37,1.33,1.87,6.05,6.64,9.19.66.44,5.91,3.79,12,2.3,2.04-.5,6.92-2.97,9.45-4.68,5.28-3.57,9.53-7.98,12.08-10.2,4.03-3.49,6.54-6.19,11.92-13.72-.63,8.83-1.45,13.56-2.3,16.09-.15.46-.63,1.79,0,2.81.75,1.21,2.87,1.62,4.34,1.02,2.2-.89,2.83-3.99,3.06-5.11,1.63-7.66,4.65-14.96,6.89-22.47,2.68-8.97,6.48-14.47,12-22.47.87-1.26,4.84-6.88,11.49-9.96,2.88-1.34,4.7-1.46,6.13-.77,2.38,1.16,2.96,4.26,3.06,4.85.6,3.25-.84,6.03-1.28,6.89-1.2,2.37-2.84,8.39-6.13,20.43-3.91,14.32-2.11,19.06-1.53,20.43.67,1.58,2.32,5.47,5.87,6.64,3.79,1.25,8.93-.88,12-3.06,2.32-1.65,4.26-3.91,6.38-3.32,1.04.29,1.48,1.08,2.55,1.02.94-.05,1.84-.72,3.06-2.55,1.25-1.86,2.66-4.65,3.57-9.96.57-3.32.84-4.99,0-5.62-1.17-.87-3.65.62-6.38,2.3-5.5,3.38-5.84,5.29-9.45,6.64-.83.31-5.65,2.12-8.43,0-.89-.68-2.87-2.74-1.53-11.49,1.94-12.69,7.13-15.04,8.94-26.3.73-4.53,1.87-11.65-2.3-15.83-3.53-3.55-9.08-3.17-10.72-3.06-14.93,1-23.69,21.04-24.51,22.98.3-5.23.82-9.07,1.28-11.74.25-1.47.63-3.48-.51-4.6-.87-.85-2.45-1.03-3.57-.51-2.11.97-2.28,4.2-2.81,7.66-.26,1.69-1.54,5.9-4.09,14.3-1.84,6.07-2.92,9.62-5.11,13.53-1.78,3.19-5.42,8.31-13.62,16.26-7.46,7.24-12.43,10.14-16.85,11.23-1.61.4-5.07,1.87-9.62-1.45-4.41-3.21-4.82-8.65-4.85-9.19-.15-2.44.75-4.64,2.55-8.94,3.21-7.65,5.59-10.15,4.34-12.51-.69-1.3-2.26-2.13-3.57-2.04-1.4.09-1.36-.72-2.81,1.87-2.63,4.67-2.8,7.65-4.25,10.68-5.12,10.68-3.94,9.66-8.51,15.29-3.46,4.26-7.72,9.38-14.81,12.51-4.67,2.06-6.95,1.67-8.17,1.28-3.82-1.22-5.51-5.05-5.87-5.87-2.13-4.82-.46-9.67,1.02-13.79,1.08-3.01,4.08-10.98,12.26-17.62,8.22-6.67,16.86-8.1,21.96-8.94,8.06-1.33,12.21-1.08,14.04-.51.67.21,2.33.79,3.57,0,1.21-.76.85-2.06,2.04-4.85,1.27-2.97,2.5-3.45,2.3-4.85-.27-1.87-2.73-2.95-3.57-3.32-3.32-1.46-11.6-2.91-25.28,2.81-7.86,3.29-17.89,7.48-25.02,17.62-4.61,6.55-7.93,15.47-9.96,20.94-1.32,3.56-2.27,6.6-4.6,11.23-4.71,9.38-8.47,12.17-9.7,13.02-2.28,1.57-6.44,4.44-10.47,3.06-3.95-1.35-5.49-6-6.38-8.68-1.71-5.14-1.16-8.94-.26-17.11.94-8.49.61-9.6,1.28-17.36.25-2.9.94-4.57,1.02-8.17.04-2.05-.09-3.36-1.02-4.09-1.04-.81-2.72-.61-3.83,0-2.22,1.23-2.61,4.39-2.81,6.13-.71,6.4-.58,9.62-1.02,16.85s-.08,9.87-2.55,18.38c-.52,1.79-4.31,8.42-10.98,16-3.74,4.26-7.16,5.83-10.21,6.47-.34.07-6.06,1.19-8.94-2.04-1.82-2.05-2.67-9.71-2.55-14.3.29-11.26.66-11.67,1.56-18.15.52-3.73.93-4.55,3.04-10.96.38-1.16,1.22-3.65,0-5.36-1.02-1.43-3.31-2.06-4.85-1.53Z"/>
  </g>
  <g>
    <path class="cls-4" d="M166.22,447.6c-2.25,0-3.5-1.26-3.5-3.5v-62.05h-17.93c-2.25,0-3.5-1.26-3.5-3.5v-.55c0-2.25,1.26-3.5,3.5-3.5h43.91c2.25,0,3.5,1.26,3.5,3.5v.55c0,2.25-1.26,3.5-3.5,3.5h-17.83v62.05c0,2.25-1.26,3.5-3.5,3.5h-1.15Z"/>
    <path class="cls-4" d="M230.36,444.09v-66.11c0-2.25,1.26-3.5,3.5-3.5h1.15c2.25,0,3.5,1.26,3.5,3.5v28.76h40.17v-28.76c0-2.25,1.26-3.5,3.5-3.5h1.15c2.25,0,3.5,1.26,3.5,3.5v66.11c0,2.25-1.26,3.5-3.5,3.5h-1.15c-2.25,0-3.5-1.26-3.5-3.5v-30.05h-40.17v30.05c0,2.25-1.26,3.5-3.5,3.5h-1.15c-2.25,0-3.5-1.26-3.5-3.5Z"/>
    <path class="cls-4" d="M333.45,447.6c-2.25,0-3.5-1.25-3.5-3.5v-66.11c0-2.25,1.26-3.5,3.5-3.5h40.05c2.25,0,3.5,1.26,3.5,3.5v.55c0,2.25-1.26,3.5-3.5,3.5h-35.4v24.71h33.58c2.25,0,3.5,1.26,3.5,3.5v.33c0,2.25-1.26,3.45-3.5,3.45h-33.58v26h35.4c2.25,0,3.5,1.26,3.5,3.5v.55c0,2.25-1.26,3.5-3.5,3.5h-40.05Z"/>
    <path class="cls-4" d="M478.24,443.52c.99,2.4-.05,4.08-2.61,4.08h-1.5c-1.94,0-3.3-.94-4.08-2.72l-5.72-13.49h-40.38l-5.71,13.49c-.73,1.78-2.14,2.72-4.08,2.72h-1.4c-2.61,0-3.71-1.67-2.72-4.08l28.94-66.32c.78-1.84,2.14-2.72,4.08-2.72h2.11c1.94,0,3.29.88,4.08,2.72l28.99,66.32h0ZM444.11,383.71l-17.25,40.77h34.53l-17.28-40.77Z"/>
    <path class="cls-4" d="M525.07,447.6c-2.25,0-3.5-1.26-3.5-3.5v-62.05h-17.93c-2.25,0-3.5-1.26-3.5-3.5v-.55c0-2.25,1.25-3.5,3.5-3.5h43.91c2.25,0,3.5,1.26,3.5,3.5v.55c0,2.25-1.26,3.5-3.5,3.5h-17.83v62.05c0,2.25-1.26,3.5-3.5,3.5h-1.15Z"/>
    <path class="cls-4" d="M640.83,443.31c1.88,2.73,1.16,4.29-2.2,4.29h-1.94c-1.88,0-3.19-.74-4.23-2.25l-17.41-24.1c-1.72.09-3.52.14-5.39.14h-12.24v22.71c0,2.25-1.26,3.5-3.5,3.5h-1.2c-2.25,0-3.5-1.26-3.5-3.5v-66.11c0-2.25,1.26-3.5,3.5-3.5h17.06c21.93,0,33.07,5.44,33.07,23.34,0,13.26-6.58,19.9-19.02,22.38l17.03,23.11h0ZM609.6,414.25c15.94,0,25.02-2.62,25.02-16.16s-9.07-16.32-25.02-16.32h-12.24v32.48h12.24Z"/>
    <path class="cls-4" d="M686.75,447.6c-2.25,0-3.5-1.25-3.5-3.5v-66.11c0-2.25,1.26-3.5,3.5-3.5h40.05c2.25,0,3.5,1.26,3.5,3.5v.55c0,2.25-1.26,3.5-3.5,3.5h-35.4v24.71h33.58c2.25,0,3.5,1.26,3.5,3.5v.33c0,2.25-1.26,3.45-3.5,3.45h-33.58v26h35.4c2.25,0,3.5,1.26,3.5,3.5v.55c0,2.25-1.26,3.5-3.5,3.5h-40.05Z"/>
  </g>
  <text class="cls-1" transform="translate(140.3 525.43)"><tspan x="0" y="0">F</tspan><tspan x="26.44" y="0">o</tspan><tspan x="57.53" y="0">l</tspan><tspan x="72.67" y="0">l</tspan><tspan x="87.81" y="0">o</tspan><tspan x="118.93" y="0">w</tspan><tspan x="156.58" y="0"> </tspan><tspan x="172.71" y="0">m</tspan><tspan x="217.04" y="0">e</tspan><tspan x="245.13" y="0"> </tspan><tspan x="261.26" y="0">t</tspan><tspan x="280.11" y="0">o</tspan><tspan x="311.22" y="0"> </tspan><tspan x="327.33" y="0">t</tspan><tspan x="346.58" y="0">h</tspan><tspan x="376.73" y="0">e</tspan><tspan x="404.8" y="0"> </tspan><tspan x="420.93" y="0">m</tspan><tspan x="465.27" y="0">o</tspan><tspan x="496.36" y="0">v</tspan><tspan x="522.34" y="0">i</tspan><tspan x="537.46" y="0">e</tspan><tspan x="565.55" y="0">s</tspan></text>
</svg>