<?xml version="1.0" encoding="UTF-8"?>
<svg id="Layer_1" data-name="Layer 1" xmlns="http://www.w3.org/2000/svg" viewBox="0 0 450 225">
  <defs>
    <style>
      .cls-1 {
        fill: #ffffff;
        stroke-width: 0px;
      }
    </style>
  </defs>
  <g>
    <path class="cls-1" d="M450,46.34v-14.8c-17.1-.39-30.83-14.37-30.83-31.54H31.56v.14c0,17.43-14.13,31.56-31.56,31.56v14.62c7.5,2.88,12.82,10.15,12.82,18.67s-5.32,15.78-12.82,18.67v10.17c7.5,2.88,12.82,10.15,12.82,18.67s-5.32,15.79-12.82,18.67v10.17c7.5,2.89,12.82,10.16,12.82,18.67s-5.32,15.79-12.82,18.67v14.91c17.38,0,31.48,14.05,31.56,31.41h387.61c0-17.18,13.73-31.16,30.83-31.55v-14.79c-7.48-2.89-12.78-10.15-12.78-18.65s5.3-15.76,12.78-18.65v-10.21c-7.48-2.89-12.78-10.15-12.78-18.65s5.3-15.76,12.78-18.65v-10.21c-7.48-2.89-12.78-10.16-12.78-18.65s5.3-15.76,12.78-18.65ZM425,185c0,8.28-6.72,15-15,15H40c-8.28,0-15-6.72-15-15V40c0-8.28,6.72-15,15-15h370c8.28,0,15,6.72,15,15v145Z"/>
    <path class="cls-1" d="M405,30H45c-8.28,0-15,6.72-15,15v135c0,8.28,6.72,15,15,15h360c8.28,0,15-6.72,15-15V45c0-8.28-6.72-15-15-15ZM63.86,147.82c0,.87-.48,1.36-1.36,1.36h-6.9v24.03c0,.87-.48,1.35-1.36,1.35h-.44c-.87,0-1.36-.48-1.36-1.35v-24.03h-6.94c-.87,0-1.36-.49-1.36-1.36v-.21c0-.87.49-1.36,1.36-1.36h17c.88,0,1.36.49,1.36,1.36v.21ZM43.34,119.87c1.53-10.94,29.99-14.28,19.58-4.15-2.66,1.6-4.83-.91-9.2-.1-4.41.4-9.8,5.35-5.34,10.68,4.89,3.99,9.01,4.19,17.1,2.37,2.27.4,16.76-10.22,13.25-19.08-5.95-11.35-14.8-4-21.65-17.99-4.28-12.78,9.51-33.06,21.55-26.49,6.52,3.56,5.34,8.01,3.36,15.02-1.22,4.34-1.98,4.86-2.47,4.95-2.14.27-1.86-2.26-1.09-3.46,4.09-6.55,1.22-16.48-8.3-12.46-7.85,3.73-11.5,9.86-10.97,17,3.4,13.44,25.85,8.81,22.93,27.78-2.16,22.36-43.44,30.94-38.75,5.93ZM100.52,173.21c0,.87-.49,1.35-1.36,1.35h-.44c-.87,0-1.36-.48-1.36-1.35v-11.64h-15.56v11.64c0,.87-.48,1.35-1.35,1.35h-.45c-.87,0-1.35-.48-1.35-1.35v-25.6c0-.87.48-1.36,1.35-1.36h.45c.87,0,1.35.49,1.35,1.36v11.13h15.56v-11.13c0-.87.49-1.36,1.36-1.36h.44c.87,0,1.36.49,1.36,1.36v25.6ZM135.43,147.82c0,.87-.48,1.36-1.35,1.36h-13.71v9.57h13c.87,0,1.36.48,1.36,1.35v.13c0,.87-.49,1.34-1.36,1.34h-13v10.06h13.71c.87,0,1.35.49,1.35,1.36v.22c0,.87-.48,1.35-1.35,1.35h-15.51c-.87,0-1.36-.48-1.36-1.35v-25.6c0-.87.49-1.36,1.36-1.36h15.51c.87,0,1.35.49,1.35,1.36v.21ZM146.44,111.93c-.26,0-.53-.19-.79-.66-3.52,1.88-3.9,2.81-7.12,2.57-3.73-1.71-3.84-3.41-2.77-8.4,1.06-4.65,4.95-10.93,2.47-14.43-2.91-1.32-6.98,2.66-8.4,5.43-.5.83-3.46,6.85-5.34,14.14-.09.35.01,1.89-.98,3.06-3.82,3.85-1.68-4.2-1.29-6.82-5.67,7.18-16.61,16.69-20.36,6.23-1.75,4.12-9.74,9.47-14.14,6.52-5.32-5.81-.26-18.58,6.33-23.03,7.02-4.85,18.88-6.24,15.91-1.08-.83,2.19-.65,2.88-3.16,2.17-2.42-.1-6.06.15-9.78,2.08-2.03.53-13.02,9.01-6.92,15.52,5.01,3.79,12.91-6.67,13.64-12.16-.33-.86,1.97-5.4,3.36-2.57,1.01,1.52-3.26,7.97-2.37,9.68,4.48,10.01,18.75-8.28,17.49-7.9,1.21-2.59,3.54-7.58,3.46-10.98-.01-.41-.09-2.03.79-2.57,3.2-1.09,1.55,4.77,1.39,6.03.41-1.67,7.93-12.76,13.93-6.92,2.6,4.57-2.02,10.58-2.86,16.02-1.01,4.63.76,5.44,3.85,4.45,1.89-.78,1.96-2.31,4.05-3.07,3.29-1.4,2.7,1.67,1.49,4.15-.27.58-1.04,2.54-1.88,2.54ZM173.64,174.56h-.59c-.75,0-1.27-.36-1.58-1.05l-2.21-5.23h-15.64l-2.21,5.23c-.28.69-.82,1.05-1.57,1.05h-.54c-1.02,0-1.44-.65-1.06-1.58l11.21-25.68c.3-.71.83-1.05,1.58-1.05h.81c.75,0,1.28.34,1.58,1.05l11.23,25.68c.38.93-.02,1.58-1.01,1.58ZM179.65,93.87c-.17.98-.36,2.05-1.19,2.57-.26.17-.6.28-1.28.5-.59.19-1.05.29-1.09.29-.7.16-2.68,1.89-7.21,6.93-.4,5.03-.94,9.21-1.39,12.25-1.52,10.28-2.95,13.87-4.25,16.41-3.25,6.36-6.32,7.49-7.51,7.81-.62.17-2.83.76-4.55-.4-1.16-.78-1.8-2.16-2.17-5.04-.35-2.68-.84-6.86.99-12.25,1.62-4.8,4.19-7.96,6.32-10.58,2.05-2.53,4.17-4.53,5.34-5.64,1.94-1.83,3.69-3.28,5.04-4.34,2.02-12.51,3.44-21.69,3.76-23.93.06-.4.2-1.51.19-2.96,0-.75-.01-1.96-.29-3.16-.42-1.77-1.32-2.97-2.08-3.96-3.39-4.4-5.29-6.86-8.99-9.98-2.24-1.89-3.65-2.76-5.34-3.36-1.36-.49-2.71-.95-4.35-.59-3.01.65-4.44,3.52-4.64,3.95-.79,1.64-.87,3.39-.4,6.03,1.35,7.49,8.8,17.3,8.8,17.3,3.88,5.07,6.32,7.41,8.99,9.88.37.34.76,1.76.3,3.06-.23.65-.71,1.3-1.09,1.49-2.38,1.18-11.61-10.3-17.49-23.72-1.96-4.46-3.21-8.37-2.28-12.76.31-1.44,1.13-5.3,4.55-7.61.58-.39,2.15-1.35,4.35-1.58,3.84-.39,7.06,1.44,10.48,4.55,3.73,3.39,4.98,4.71,8.99,9.68.93,1.16,2.07,2.62,2.67,4.85.56,2.06.39,3.78.29,4.64-.39,3.65-1.49,12.79-3.16,25.01,3.85-3.46,5.76-5.43,6.53-6.52.19-.28.75-1.12,1.68-1.29.15-.02.84-.18,1.28.2.52.45.36,1.33.2,2.27ZM202.82,147.82c0,.87-.49,1.36-1.36,1.36h-6.9v24.03c0,.87-.49,1.35-1.36,1.35h-.44c-.88,0-1.36-.48-1.36-1.35v-24.03h-6.94c-.87,0-1.36-.49-1.36-1.36v-.21c0-.87.49-1.36,1.36-1.36h17c.87,0,1.36.49,1.36,1.36v.21ZM235.81,147.82c0,.87-.49,1.36-1.36,1.36h-13.71v9.57h13.01c.87,0,1.35.48,1.35,1.35v.13c0,.87-.48,1.34-1.35,1.34h-13.01v10.06h13.71c.87,0,1.36.49,1.36,1.36v.22c0,.87-.49,1.35-1.36,1.35h-15.51c-.87,0-1.36-.48-1.36-1.35v-25.6c0-.87.49-1.36,1.36-1.36h15.51c.87,0,1.36.49,1.36,1.36v.21ZM249.43,91.3c-.56.24-1.38.08-1.68-.39-.24-.39-.06-.91,0-1.09.33-.98.65-2.81.89-6.23-2.08,2.92-3.05,3.97-4.61,5.32-.99.85-2.63,2.56-4.68,3.94-.98.67-2.86,1.62-3.65,1.82-2.36.57-4.39-.72-4.65-.89-1.85-1.22-2.43-3.05-2.57-3.56-.72,1.17-3.96,6.2-9.39,6.82-1.24.14-4.49.51-6.13-1.58-.85-1.1-.92-2.42-.89-3.17-.6,1.7-2.21,5.43-5.93,7.42-1.12.6-2.8,1.49-4.55.89-1.9-.66-2.82-2.73-3.06-3.27-.42-.95-.55-1.81-.59-2.37-2.22,3.2-4.44,5.36-6.03,6.72-1.92,1.64-2.92,2.12-4.06,2.18-1.92.1-3.73-1.01-4.74-2.37-.84-1.13-1.04-2.31-1.19-3.76-.43-4.37.19-6.39.89-12.95.34-3.16.46-5.15,1.58-5.53.6-.21,1.49.03,1.88.59.48.66.15,1.63,0,2.07-.81,2.49-.97,2.8-1.17,4.25-.35,2.51-.49,2.66-.61,7.02-.04,1.78.29,4.75.99,5.54,1.11,1.25,3.33.82,3.46.79,1.18-.25,2.51-.86,3.96-2.51,2.58-2.93,4.04-5.5,4.25-6.19.95-3.29.82-4.41.98-7.12.17-2.8.12-4.04.4-6.52.07-.67.23-1.9,1.09-2.37.43-.24,1.08-.32,1.48,0,.36.28.41.78.39,1.58-.03,1.39-.29,2.04-.39,3.16-.26,3.01-.13,3.44-.49,6.72-.35,3.17-.57,4.64.09,6.63.35,1.03.95,2.83,2.48,3.36,1.56.53,3.17-.58,4.05-1.19.48-.33,1.93-1.41,3.75-5.04.9-1.79,1.27-2.97,1.78-4.35.79-2.12,2.07-5.57,3.86-8.1,2.76-3.93,6.64-5.55,9.68-6.83,5.3-2.21,8.51-1.65,9.79-1.08.33.14,1.28.56,1.38,1.28.08.55-.39.73-.89,1.88-.46,1.08-.32,1.58-.79,1.88-.48.3-1.12.08-1.38,0-.71-.22-2.31-.32-5.44.2-1.97.32-5.32.87-8.5,3.46-3.16,2.57-4.32,5.65-4.74,6.82-.58,1.59-1.22,3.47-.4,5.33.14.32.8,1.8,2.28,2.28.47.15,1.35.3,3.16-.5,2.75-1.21,4.39-3.19,5.73-4.84,1.77-2.18,1.31-1.78,3.3-5.92.56-1.17.62-2.32,1.64-4.13.57-1,.55-.69,1.09-.72.51-.04,1.12.28,1.39.79.48.91-.44,1.88-1.68,4.84-.7,1.66-1.05,2.51-.99,3.46,0,.21.17,2.31,1.88,3.56,1.75,1.28,3.09.71,3.72.56,1.71-.43,3.63-1.55,6.52-4.35,3.18-3.08,4.58-5.06,5.27-6.29.85-1.52,1.27-2.89,1.98-5.24.99-3.26,1.48-4.88,1.58-5.54.21-1.34.27-2.59,1.09-2.96.44-.2,1.05-.14,1.38.19.44.44.3,1.22.2,1.78-.17,1.04-.38,2.53-.49,4.55.31-.75,3.7-8.51,9.49-8.9.63-.04,2.78-.18,4.15,1.19,1.61,1.62,1.17,4.37.89,6.13-.7,4.36-2.71,5.27-3.46,10.18-.52,3.39.25,4.19.59,4.45,1.08.82,2.94.12,3.26,0,1.4-.53,1.53-1.26,3.66-2.57,1.06-.65,2.02-1.23,2.47-.89.33.24.22.89,0,2.17-.35,2.06-.9,3.14-1.38,3.86-.48.71-.83.97-1.19.99-.41.02-.59-.29-.99-.4-.82-.23-1.57.65-2.47,1.29-1.19.84-3.18,1.66-4.64,1.18-1.38-.45-2.02-1.96-2.28-2.57-.22-.53-.92-2.36.6-7.91,1.27-4.66,1.9-6.99,2.37-7.9.17-.34.72-1.41.49-2.67-.04-.23-.26-1.43-1.18-1.88-.56-.27-1.26-.22-2.38.3-2.57,1.19-4.11,3.36-4.44,3.85-2.14,3.1-3.61,5.23-4.65,8.7-.87,2.91-2.04,5.73-2.67,8.7-.09.43-.34,1.63-1.19,1.97ZM271.38,172.9h0c.73,1.06.46,1.66-.85,1.66h-.75c-.73,0-1.23-.28-1.64-.87l-6.74-9.33c-.67.03-1.36.05-2.09.05h-4.74v8.8c0,.87-.49,1.35-1.36,1.35h-.46c-.87,0-1.36-.48-1.36-1.35v-25.6c0-.87.49-1.36,1.36-1.36h6.6c8.5,0,12.81,2.11,12.81,9.04,0,5.13-2.55,7.71-7.37,8.66l6.6,8.95ZM406.62,97.37l-46.78,30.4c-.46.3-.68.97-.48,1.49l19.98,52.08c.91,2.38.04,3.01-1.94,1.41l-43.37-35.09c-.43-.35-1.13-.35-1.56,0l-43.36,35.09c-1.98,1.6-2.86.97-1.94-1.41l19.97-52.08c.2-.52-.02-1.19-.48-1.49l-46.78-30.4c-2.13-1.38-1.8-2.41.74-2.28l55.71,2.91c.56.02,1.13-.39,1.27-.92l14.45-53.88c.66-2.46,1.74-2.46,2.4,0l14.46,53.88c.14.53.71.94,1.26.92l55.71-2.91c2.54-.13,2.87.9.74,2.28Z"/>
    <path class="cls-1" d="M166.21,106.33c-.11,1.12-1.8,17.97-4.45,24.91-.45,1.18-1.35,3.18-3.36,4.45-.48.3-2.74,1.72-4.65.78-1.26-.61-1.81-1.92-2.07-2.86-1.19-4.25.28-8.47,1.08-10.48.57-1.42,1.37-3.41,3.37-6.03,1.31-1.72,2.98-3.89,5.53-6.52,1.66-1.71,3.22-3.13,4.55-4.25Z"/>
  </g>
  <path class="cls-1" d="M391.27,102.41l-36.45,23.69c-.52.34-.72.98-.51,1.55l15.57,40.6c.48,1.23-.99,2.3-2.02,1.46l-33.8-27.35c-.47-.38-1.15-.38-1.62,0l-33.8,27.35c-1.03.84-2.49-.23-2.02-1.46l15.57-40.6c.22-.57.01-1.21-.5-1.55l-36.46-23.69c-1.11-.72-.55-2.44.77-2.37l43.42,2.26c.61.03,1.16-.37,1.32-.96l11.31-42.18c.66-2.45,1.74-2.45,2.4,0l11.32,42.18c.15.59.7.99,1.31.96l43.42-2.26c1.32-.07,1.88,1.65.77,2.37Z"/>
  <g>
    <polygon class="cls-1" points="168.12 165.61 154.76 165.61 161.43 149.82 168.12 165.61"/>
    <path class="cls-1" d="M268.97,155.39c0,5.25-3.52,6.26-9.69,6.26h-4.74v-12.58h4.74c6.17,0,9.69,1.08,9.69,6.32Z"/>
  </g>
</svg>